<svg width="36" height="27" viewBox="0 0 36 27" fill="none" xmlns="http://www.w3.org/2000/svg">
<g clip-path="url(#clip0_2493_2258)">
<path d="M38.4004 0H-2.39965C-5.05061 0 -7.19965 1.61177 -7.19965 3.6V23.4C-7.19965 25.3882 -5.05061 27 -2.39965 27H38.4004C41.0513 27 43.2004 25.3882 43.2004 23.4V3.6C43.2004 1.61177 41.0513 0 38.4004 0Z" fill="#FFDA2C"/>
<path fill-rule="evenodd" clip-rule="evenodd" d="M-7.19965 18H43.2004V27H-7.19965V18Z" fill="#F93939"/>
<path fill-rule="evenodd" clip-rule="evenodd" d="M-7.19965 0H43.2004V9H-7.19965V0Z" fill="#249F58"/>
<path d="M18.0005 21.6C23.9652 21.6 28.8005 17.9735 28.8005 13.5C28.8005 9.02648 23.9652 5.39998 18.0005 5.39998C12.0359 5.39998 7.20055 9.02648 7.20055 13.5C7.20055 17.9735 12.0359 21.6 18.0005 21.6Z" fill="#1A47B8"/>
<path fill-rule="evenodd" clip-rule="evenodd" d="M17.9957 15.75L14.4677 17.1414L15.1397 14.1948L12.2885 12.1068L16.2317 11.6802L17.9957 8.99821L19.7573 11.6802L23.7005 12.1068L20.8445 14.1948L21.5213 17.1396" fill="#FFDA2C"/>
</g>
<defs>
<clipPath id="clip0_2493_2258">
<rect width="36" height="27" fill="white"/>
</clipPath>
</defs>
</svg>
